<svg width="300" height="300" viewBox="0 0 300 300" fill="none" xmlns="http://www.w3.org/2000/svg">
<g clip-path="url(#clip0_136_4512)">
<path d="M113.513 116.168C113.513 116.168 108.857 122.231 107.026 129.411C105.671 134.719 105.992 140.595 110.689 145.199C115.386 149.803 124.501 151.821 124.501 151.821L129.364 136.457C129.364 136.457 125.66 133.777 125.349 131.801C124.925 129.121 126.901 126.162 126.901 126.162L113.513 116.158V116.168Z" fill="#F5DEDE"/>
<path d="M126.043 127.818C126.467 126.835 126.901 126.173 126.901 126.173L113.513 116.168C113.513 116.168 112.148 117.958 110.596 120.731L126.043 127.818Z" fill="#EEC1C1"/>
<path d="M126.622 165.778C126.622 165.778 126.136 211.539 126.901 219.754C128.691 238.926 133.802 243.426 133.802 243.426L144.655 243.281C144.655 243.281 150.667 235.998 151.846 221.999C152.477 214.447 153.119 199.734 153.119 199.734C153.119 199.734 157.381 228.217 158.478 234.032C160.361 243.995 166.372 248.506 166.372 248.506L177.929 246.251C177.929 246.251 182.388 240.002 182.253 226.893C182.119 213.784 181.177 184.805 181.177 184.805L177.939 161.971L126.643 165.778H126.622Z" fill="#58C6CD"/>
<path d="M144.666 176.486L151.567 184.246L153.119 199.745" stroke="#99D7DB" stroke-linecap="round" stroke-linejoin="round"/>
<path d="M140.713 169.306L140.858 182.694L139.865 190.019" stroke="#99D7DB" stroke-linecap="round" stroke-linejoin="round"/>
<path d="M141.841 190.298L140.858 182.694" stroke="#99D7DB" stroke-linecap="round" stroke-linejoin="round"/>
<path d="M161.996 169.161V174.934L163.123 180.294" stroke="#99D7DB" stroke-linecap="round" stroke-linejoin="round"/>
<path d="M160.589 179.735L161.996 174.934" stroke="#99D7DB" stroke-linecap="round" stroke-linejoin="round"/>
<path d="M156.595 279.99C191.576 279.99 219.934 275.988 219.934 271.051C219.934 266.114 191.576 262.111 156.595 262.111C121.613 262.111 93.2554 266.114 93.2554 271.051C93.2554 275.988 121.613 279.99 156.595 279.99Z" fill="#A1A3F6"/>
<path d="M134.651 247.803L135.395 256.897L131.981 258.376C131.981 258.376 138.044 260.632 140.858 259.928C143.672 259.225 143.114 259.328 143.114 259.328L143.817 248.154L134.661 247.803H134.651Z" fill="#F5DEDE"/>
<path d="M168.762 253.162L170.128 264.108C170.128 264.108 173.138 265.991 175.104 264.864C177.07 263.736 177.918 263.177 177.918 263.177L177.163 251.807L168.752 253.172L168.762 253.162Z" fill="#F5DEDE"/>
<path d="M144.666 84.881L142.555 95.31L136.917 97.1412C136.917 97.1412 141.427 107.012 152.136 107.57C162.844 108.129 167.5 96.9964 167.5 96.9964L159.751 94.0374L156.647 84.5913L144.666 84.8707V84.881Z" fill="#F5DEDE"/>
<path d="M136.451 72.0518C136.451 72.0518 137.558 82.129 142.266 87.5607C148.359 94.5961 156.502 92.7752 160.164 86.5778C163.827 80.3804 163.496 63.9714 163.496 63.9714L142.245 58.9017L139.948 62.7609C139.948 62.7609 135.841 62.0366 135.965 64.2093C136.089 66.382 136.451 72.0621 136.451 72.0621V72.0518Z" fill="#F5DEDE"/>
<path d="M151.867 79.0975C144.873 79.6769 141.148 81.8289 139.503 83.1222C140.248 84.7362 141.158 86.2778 142.276 87.5607C148.37 94.5961 156.512 92.7752 160.175 86.5778C161.147 84.9224 161.84 82.6255 162.337 80.1218C159.73 79.5527 155.477 78.8078 151.877 79.1078L151.867 79.0975Z" fill="#A1A3F6"/>
<path d="M71.3733 77.6904L78.6363 83.1946C79.6089 83.9292 81.0159 83.4429 81.316 82.2634L86.7374 61.2089" stroke="#58C6CD" stroke-width="2" stroke-linecap="round" stroke-linejoin="round"/>
<path d="M212.03 80.0907L214.182 88.8126C214.43 89.8369 215.641 90.2714 216.489 89.6506L233.312 77.4111" stroke="#EF8B8B" stroke-width="2" stroke-linecap="round" stroke-linejoin="round"/>
<path d="M149.849 61.5503C149.849 61.5503 156.005 63.8472 160.237 62.6367C164.468 61.4262 167.727 59.6156 167.727 59.6156" stroke="#EF8B8B" stroke-miterlimit="10"/>
<path d="M136.482 94.8858C136.482 94.8858 139.089 101.021 146.207 103.763C152.684 106.267 158.747 103.204 161.427 100.949C164.106 98.6932 166.496 94.4616 166.496 94.4616C166.496 94.4616 171.597 95.072 177.494 97.9897C189.475 103.908 196.666 114.202 196.666 114.202L181.871 128.997L177.505 124.631L183.847 165.499C183.847 165.499 178.208 169.865 152.705 169.73C127.201 169.596 122.121 167.899 122.121 167.899L128.319 127.456L109.716 116.323C109.716 116.323 113.441 107.612 123.104 100.68C130.574 95.3203 136.492 94.9065 136.492 94.9065L136.482 94.8858Z" fill="#585CE5"/>
<path d="M175.663 116.592L177.494 124.621" stroke="#A1A3F6" stroke-linecap="round" stroke-linejoin="round"/>
<path d="M130.429 115.185L128.308 127.445" stroke="#A1A3F6" stroke-linecap="round" stroke-linejoin="round"/>
<path d="M126.343 133.643C126.343 133.643 129.188 138.06 138.53 139.778C142.762 140.554 146.776 139.985 146.776 139.985C146.776 139.985 148.608 133.994 149.032 133.012C149.456 132.029 148.608 128.718 149.311 128.573C150.015 128.428 150.47 128.263 151.287 129.277C152.105 130.29 152.415 131.532 152.56 133.643C152.705 135.753 152.56 136.881 152.56 136.881C152.56 136.881 156.595 135.65 158.199 134.905C160.03 134.056 160.454 133.353 161.302 133.922C162.151 134.491 162.989 136.322 163.278 137.305C163.568 138.288 164.551 138.992 164.406 141.247C164.261 143.503 164.127 146.606 163.423 147.444C162.72 148.283 162.296 148.852 157.785 149.979C153.274 151.107 150.46 150.403 148.763 150.259C147.066 150.114 142.276 152.307 133.399 152.307C126.208 152.307 121.987 151.035 121.987 151.035L126.353 133.632L126.343 133.643Z" fill="#F5DEDE"/>
<path d="M149.208 70.1584C149.208 70.1584 147.345 77.0903 147.521 77.4007C147.666 77.6801 148.649 78.2491 149.963 78.1663C151.37 78.0836 151.629 77.7215 151.629 77.7215" stroke="#0F2851" stroke-linecap="round" stroke-linejoin="round"/>
<path d="M148.887 82.16C148.887 82.16 151.898 83.6188 154.526 81.4358C155.767 80.4011 156.295 79.3458 156.295 79.3458" stroke="#0F2851" stroke-linecap="round" stroke-linejoin="round"/>
<path d="M155.167 77.856C155.167 77.856 156.036 78.1663 156.936 79.3044C157.33 79.801 157.423 80.6701 157.423 80.6701" stroke="#0F2851" stroke-linecap="round" stroke-linejoin="round"/>
<path d="M141.324 68.5547L145.038 67.7374" stroke="#0F2851" stroke-linecap="round" stroke-linejoin="round"/>
<path d="M155.002 67.9029L158.385 68.3892" stroke="#0F2851" stroke-linecap="round" stroke-linejoin="round"/>
<path d="M143.321 70.9964L143.538 73.4691" stroke="#0F2851" stroke-linecap="round" stroke-linejoin="round"/>
<path d="M156.853 70.717L156.698 73.0553" stroke="#0F2851" stroke-linecap="round" stroke-linejoin="round"/>
<path d="M136.699 71.5655C136.699 71.5655 133.999 70.4895 132.468 70.7274C130.936 70.9654 130.45 72.0103 131.34 74.2658C132.23 76.5213 134.113 78.7457 135.199 78.694C136.813 78.6112 137.454 76.5213 137.454 76.5213L136.699 71.5655Z" fill="#F5DEDE"/>
<path d="M162.844 71.2861C162.844 71.2861 165.296 69.8583 166.341 69.6204C167.386 69.3824 168.793 69.879 168.39 71.731C167.986 73.583 167.065 76.5006 165.41 77.649C163.754 78.7974 162.275 76.5213 162.275 76.5213L162.834 71.2861H162.844Z" fill="#F5DEDE"/>
<path d="M132.819 73.6554L136.389 74.8762" stroke="#EEC1C1" stroke-linecap="round" stroke-linejoin="round"/>
<path d="M166.931 72.2483L163.734 73.7485" stroke="#EEC1C1" stroke-linecap="round" stroke-linejoin="round"/>
<path d="M134.94 232.863L136.627 243.571" stroke="#99D7DB" stroke-linecap="round" stroke-linejoin="round"/>
<path d="M142.121 243.995L143.673 235.967" stroke="#99D7DB" stroke-linecap="round" stroke-linejoin="round"/>
<path d="M168.059 238.501L170.035 247.658" stroke="#99D7DB" stroke-linecap="round" stroke-linejoin="round"/>
<path d="M166.362 248.506L167.396 253.772L178.105 251.983L177.919 246.251L166.362 248.506Z" fill="#99D7DB"/>
<path d="M133.812 243.437L134.33 248.227L144.097 248.185L144.666 243.292L133.812 243.437Z" fill="#99D7DB"/>
<path d="M132.074 256.773C132.074 256.773 134.702 258.935 138.086 259.215C141.469 259.494 144.376 258.366 144.376 258.366L144.935 265.133H114.31C114.31 265.133 114.983 262.111 117.031 261.377C120.414 260.156 132.064 256.773 132.064 256.773H132.074Z" fill="#F2D382"/>
<path d="M131.443 257.963C131.443 257.963 123.425 252.924 124.263 250.886C125.101 248.848 131.443 257.963 131.443 257.963Z" stroke="#585CE5" stroke-linecap="round" stroke-linejoin="round"/>
<path d="M129.995 248.465C128.484 248.351 131.112 258.169 131.443 257.963C131.774 257.756 132.137 250.844 131.381 249.406C130.626 247.968 129.995 248.465 129.995 248.465V248.465Z" stroke="#585CE5" stroke-linecap="round" stroke-linejoin="round"/>
<path d="M119.618 255.811L131.443 257.963" stroke="#585CE5" stroke-linecap="round" stroke-linejoin="round"/>
<path d="M168.907 263.26L169 268.329C169 268.329 170.076 270.212 179.998 274.341C186.858 277.207 191.648 277.444 191.648 277.444C191.648 277.444 192.02 275.655 190.893 273.689C189.765 271.723 179.243 261.377 179.243 261.377C179.243 261.377 176.615 263.725 173.325 264.005C170.035 264.284 168.907 263.249 168.907 263.249V263.26Z" fill="#F2D382"/>
<path d="M181.022 265.133C181.022 265.133 180.484 259.949 184.643 254.942C185.44 253.979 186.847 253.11 187.696 253.907C188.637 254.797 188.513 256.018 186.847 258.366C185.44 260.353 181.022 265.133 181.022 265.133V265.133Z" stroke="#585CE5" stroke-linecap="round" stroke-linejoin="round"/>
<path d="M185.626 262.887L181.022 265.132L185.068 273.968" stroke="#585CE5" stroke-linecap="round" stroke-linejoin="round"/>
<path d="M180.929 264.76C180.929 264.76 179.139 262.784 175.477 261.946C171.814 261.108 171.628 264.481 175.104 264.864C178.581 265.246 180.929 264.77 180.929 264.77V264.76Z" stroke="#585CE5" stroke-linecap="round" stroke-linejoin="round"/>
<path d="M80.3226 146.017C83.9748 141.309 83.2195 134.615 78.6465 131.066L65.4241 148.127C69.9971 151.676 76.6704 150.724 80.3123 146.017H80.3226Z" fill="#EEC1C1"/>
<path d="M198.445 40.3717C202.615 42.2857 207.509 40.5579 209.371 36.5126L194.265 29.5703C192.403 33.6156 194.276 38.4576 198.445 40.3717Z" fill="#A1A3F6"/>
<path d="M107.937 44.5826C111.628 44.5826 114.62 41.5902 114.62 37.8989C114.62 34.2076 111.628 31.2153 107.937 31.2153C104.246 31.2153 101.253 34.2076 101.253 37.8989C101.253 41.5902 104.246 44.5826 107.937 44.5826Z" fill="#F2D382"/>
<path d="M220.628 246.83C225.53 246.83 229.505 242.856 229.505 237.953C229.505 233.05 225.53 229.076 220.628 229.076C215.725 229.076 211.75 233.05 211.75 237.953C211.75 242.856 215.725 246.83 220.628 246.83Z" fill="#58C6CD"/>
<path fill-rule="evenodd" clip-rule="evenodd" d="M222.252 181.07C220.69 177.407 216.199 175.803 212.226 177.5L210.571 173.62C216.872 170.93 224 173.465 226.473 179.28C228.946 185.094 225.842 191.974 219.541 194.664L217.886 190.785C221.859 189.088 223.825 184.742 222.262 181.08L222.252 181.07Z" fill="#A1A3F6"/>
<path fill-rule="evenodd" clip-rule="evenodd" d="M75.3256 208.477C70.794 213.081 71.1768 220.809 76.174 225.734L71.3734 230.618C63.4378 222.817 62.8378 210.567 70.0284 203.262C77.219 195.958 89.4689 196.351 97.4044 204.152L92.6038 209.035C87.5962 204.111 79.8676 203.862 75.336 208.466L75.3256 208.477Z" fill="#C9EBED"/>
<path d="M143.942 59.9777C143.942 59.9777 146.238 63.5989 154.805 65.0474C163.372 66.4958 169.652 62.9988 171.949 60.5778C174.246 58.1568 174.721 55.5082 174.721 55.5082L167.355 57.4429L173.314 52.4146L166.879 54.2977L168.524 51.4731L164.582 52.9733L143.931 59.9777H143.942Z" fill="#0F2851"/>
<path d="M134.423 65.4819L135.944 70.4067C136.078 70.8309 136.689 70.7895 136.761 70.355L138.024 63.4851L134.423 65.4819Z" fill="#0F2851"/>
<path d="M133.512 66.5165L177.36 45.5344" stroke="#EF8B8B" stroke-linecap="round" stroke-linejoin="round"/>
<path d="M160.392 53.6044C160.392 53.6044 159.213 49.1245 154.102 46.7035C148.99 44.2825 143.362 44.9136 138.779 47.2105C134.195 49.5073 132.881 52.7147 131.836 56.5427C130.688 60.7433 133.275 66.5165 133.275 66.5165L160.382 53.6044H160.392Z" fill="#EF8B8B"/>
<path d="M140.672 48.1727L142.027 50.9661" stroke="white" stroke-linecap="round" stroke-linejoin="round"/>
<path d="M144.397 55.8185L145.762 58.6016" stroke="white" stroke-linecap="round" stroke-linejoin="round"/>
<path d="M137.279 46.9829L141.676 44.9757" stroke="#EF8B8B" stroke-linecap="round" stroke-linejoin="round"/>
<path d="M183.185 127.683C183.185 127.683 187.365 132.236 189.475 136.612C191.586 140.988 191.379 146.172 189.62 149.296C187.716 152.68 182.854 158.318 181.591 159.022C180.329 159.725 176.801 160.15 175.953 160.998C175.104 161.846 168.628 172.555 169.611 172.834C170.593 173.113 171.866 172.979 172.57 172.275C173.273 171.572 178.343 167.909 178.343 167.909L181.157 184.825C181.157 184.825 181.633 184.443 182.988 181.721C183.971 179.745 185.668 165.509 185.668 165.509C185.668 165.509 190.737 162.695 193.986 159.736C197.235 156.777 202.956 151.573 204.415 142.261C205.688 134.16 204.694 128.449 198.073 118.589C195.89 115.33 195.538 115.351 195.538 115.351L183.185 127.704V127.683Z" fill="#F5DEDE"/>
<path d="M202.491 141.713L202.708 135.908" stroke="#EEC1C1" stroke-linecap="round" stroke-linejoin="round"/>
<path d="M111.63 142.592L108.775 137.533" stroke="#EEC1C1" stroke-linecap="round" stroke-linejoin="round"/>
<path d="M178.343 167.889L179.894 165.354" stroke="#EEC1C1" stroke-linecap="round" stroke-linejoin="round"/>
<path d="M96.0903 176.072L100.87 178.783C101.429 179.104 102.133 178.752 102.215 178.111L103.85 165.478" stroke="#F2D382" stroke-width="2" stroke-linecap="round" stroke-linejoin="round"/>
<path d="M164.065 26.5388L166.931 31.2256C167.262 31.774 168.048 31.805 168.431 31.2877L175.973 21.0346" stroke="#A6D0EE" stroke-width="2" stroke-linecap="round" stroke-linejoin="round"/>
<path d="M133.388 93.7581C133.388 93.7581 133.078 97.8862 138.251 102.501C146.073 109.474 153.894 107.436 153.894 107.436" stroke="#A1A3F6" stroke-linecap="round" stroke-linejoin="round"/>
<path d="M152.27 61.3434C152.27 61.3434 157.299 63.0713 162.554 62.1918C169.321 61.0641 173.263 55.0012 173.263 55.0012" stroke="#585CE5" stroke-linecap="round" stroke-linejoin="round"/>
<path d="M162.182 64.768L162.679 69.8997C162.72 70.3446 163.33 70.4274 163.496 70.0135L166.113 63.5368L162.182 64.768Z" fill="#0F2851"/>
<path d="M195.538 115.32L183.185 127.673C183.185 127.673 183.712 128.252 184.488 129.194L197.98 118.423C195.879 115.309 195.538 115.32 195.538 115.32Z" fill="#EEC1C1"/>
</g>
<defs>
<clipPath id="clip0_136_4512">
<rect width="169.347" height="260" fill="white" transform="translate(65 20)"/>
</clipPath>
</defs>
</svg>
