<svg width="300" height="300" viewBox="0 0 300 300" fill="none" xmlns="http://www.w3.org/2000/svg">
<g clip-path="url(#clip0_136_3582)">
<path d="M156.525 279.991C187.833 279.991 213.214 276.409 213.214 271.99C213.214 267.572 187.833 263.99 156.525 263.99C125.216 263.99 99.8354 267.572 99.8354 271.99C99.8354 276.409 125.216 279.991 156.525 279.991Z" fill="#A1A3F6"/>
<path d="M150.135 251.47C150.135 251.47 146.524 269.342 147.524 270.009C148.422 270.61 174.674 270.24 180.341 270.147C180.851 270.147 181.128 269.527 180.786 269.157C180.091 268.407 178.656 267.323 175.702 266.268C170.767 264.499 160.96 262.804 160.229 262.397C158.719 261.554 162.877 250.498 162.877 250.498L150.135 251.461V251.47Z" fill="#F5DEDE"/>
<path d="M154.126 257.323C153.997 257.323 151.515 262.323 152.321 263.841C153.126 265.36 155.052 266.11 155.052 266.11" stroke="#EEC1C1" stroke-linecap="round" stroke-linejoin="round"/>
<path d="M161.405 254.748C161.988 252.933 162.553 251.35 162.775 250.757H159.543L150.126 251.47C150.126 251.47 149.811 253.035 149.395 255.248L161.405 254.748Z" fill="#EEC1C1"/>
<path d="M177.276 159.621L178.35 166.622C178.35 166.622 179.924 166.177 182.638 164.158C185.351 162.14 186.045 160.566 186.045 160.566L177.276 159.621Z" fill="#585CE5"/>
<path d="M131.968 154.26C131.968 154.26 102.91 166.622 93.4556 174.27C89.8812 177.159 88.1126 183.308 96.3539 188.688C104.595 194.068 130.958 206.393 130.958 206.393L142.061 192.938C142.061 192.938 129.106 185.873 129.949 185.54C130.792 185.206 149.293 180.326 149.293 180.326L151.145 182.845L146.941 252.304L165.942 251.97C165.942 251.97 179.064 182.845 180.073 176.622C181.082 170.4 177.378 156.612 177.378 156.612L131.968 154.26Z" fill="#0F2851"/>
<path d="M139.709 170.742L151.145 182.854L160.562 177.974" stroke="#585CE5" stroke-linecap="round" stroke-linejoin="round"/>
<path d="M169.303 164.186L177.545 178.234" stroke="#585CE5" stroke-linecap="round" stroke-linejoin="round"/>
<path d="M133.82 196.309L111.614 179.326L146.182 177.974" stroke="#585CE5" stroke-linecap="round" stroke-linejoin="round"/>
<path d="M153.997 185.382L154.173 247.1" stroke="#585CE5" stroke-linecap="round" stroke-linejoin="round"/>
<path d="M132.81 204.087L143.746 208.754C143.746 208.754 146.922 228.098 147.107 229.108C147.7 232.348 149.904 231.589 150.154 229.256C150.987 221.551 151.987 212.356 152.673 204.282C152.811 202.689 151.126 201.874 150.404 201.448C144.079 197.661 140.209 195.225 140.209 195.225L132.81 204.096V204.087Z" fill="#F5DEDE"/>
<path d="M151.478 80.9395L149.876 90.5235L144.07 92.8755C144.07 92.8755 143.737 97.0795 149.117 99.6075C154.497 102.135 163.248 103.478 166.609 99.6075C169.97 95.7369 170.313 92.2088 170.313 92.2088L165.099 89.2642L164.09 78.9208L151.478 80.9395Z" fill="#F5DEDE"/>
<path d="M164.386 81.9211L164.09 78.9208L151.478 80.9395L150.626 86.0788C151.413 86.3288 152.182 86.4769 152.895 86.5325C156.904 86.8473 161.683 84.9398 164.386 81.9211Z" fill="#EEC1C1"/>
<path d="M139.653 65.5217C139.653 65.5217 138.283 65.0125 137.681 65.5403C137.079 66.0681 137.755 69.1702 138.82 70.235C139.885 71.2999 140.709 70.8369 140.709 70.8369L139.653 65.5217Z" fill="#EEC1C1"/>
<path d="M122.05 108.182C122.05 108.182 108.262 123.822 105.567 129.202C102.873 134.582 101.53 138.62 106.577 142.324C108.503 143.74 120.031 144.842 120.031 144.842L127.513 126.508L131.301 121.211L122.05 108.173V108.182Z" fill="#EEC1C1"/>
<path d="M196.555 110.034C196.555 110.034 207.149 119.535 209.51 123.239C211.871 126.943 216.825 132.99 210.519 138.379C205.575 142.592 193.361 142.166 193.361 142.166L187.305 121.479L184.527 118.701L196.555 110.043V110.034Z" fill="#EEC1C1"/>
<path d="M138.283 57.8268C138.283 57.8268 139.718 70.6888 142.144 76.1429C144.57 81.597 149.367 84.1157 152.895 84.3935C157.664 84.7732 163.535 82.0044 165.683 77.9579C168.211 73.1983 167.794 61.8549 167.044 59.188C166.174 56.1044 159.025 48.891 159.025 48.891L149.487 48.1317L137.829 54.1876L138.283 57.8175V57.8268Z" fill="#F5DEDE"/>
<path d="M116.327 109.358L131.125 122.137L128.43 155.602C128.43 155.602 136.171 159.714 150.209 161.325C167.868 163.344 186.036 160.566 186.036 160.566L181.415 121.628L199.75 110.358C199.75 110.358 189.657 99.2557 180.915 94.7183C172.174 90.1809 170.155 90.005 170.155 90.005C170.155 90.005 165.442 97.0703 160.229 97.737C155.015 98.4037 150.941 98.376 147.107 95.635C144.163 93.533 143.403 90.6717 143.403 90.6717C143.403 90.6717 137.468 91.0606 128.013 98.4963C118.559 105.932 116.327 109.34 116.327 109.34V109.358Z" fill="#58C6CD"/>
<path opacity="0.2" d="M184.092 144.203L129.273 145.166L128.949 149.259L185.073 152.398L184.092 144.203Z" fill="#585CE5"/>
<path d="M132.245 113.96L131.125 122.137" stroke="#99D7DB" stroke-linecap="round" stroke-linejoin="round"/>
<path d="M179.925 113.775L181.415 121.637" stroke="#99D7DB" stroke-linecap="round" stroke-linejoin="round"/>
<path d="M152.237 100.589L155.515 106.33L158.729 100.784" stroke="#99D7DB" stroke-linecap="round" stroke-linejoin="round"/>
<path d="M143.718 96.5518C142.579 98.1074 132.81 111.182 132.81 111.182" stroke="#99D7DB" stroke-linecap="round" stroke-linejoin="round"/>
<path d="M169.813 99.0982L179.23 111.312" stroke="#99D7DB" stroke-linecap="round" stroke-linejoin="round"/>
<path d="M167.044 59.188C167.044 59.188 167.359 49.5206 166.303 47.1779C165.377 45.1314 162.395 42.9554 157.349 42.0108C154.136 41.409 143.589 40.5756 138.894 40.27C135.403 40.0477 131.097 40.2515 131.245 41.3256C131.356 42.1312 133.292 43.4461 133.292 43.4461C133.292 43.4461 129.912 42.1312 128.597 42.9924C127.134 43.9554 131.171 45.4185 131.171 45.4185C131.171 45.4185 127.699 45.3537 127.541 46.4741C127.402 47.4279 127.912 48.2243 129.912 49.3817C131.912 50.5392 135.718 51.4652 135.718 51.4652C135.718 51.4652 125.421 50.7059 126.032 52.5209C126.643 54.3358 130.801 56.4563 135.644 57.2156C140.487 57.9749 148.006 56.3174 150.858 55.2433C156.08 53.2709 158.803 50.0948 158.803 50.0948C158.803 50.0948 160.423 52.8542 161.905 54.7895C163.646 57.0582 167.053 59.1787 167.053 59.1787L167.044 59.188Z" fill="#EF8B8B"/>
<path d="M146.913 65.5403C146.913 65.5403 146.524 73.2908 147.061 73.5594C147.82 73.939 150.469 73.0316 150.922 72.5778" stroke="#0F2851" stroke-linecap="round" stroke-linejoin="round"/>
<path d="M117.207 126.174C120.772 126.174 189.527 121.461 192.388 120.961C195.25 120.461 196.092 121.97 196.426 123.656C196.759 125.341 197.435 142.833 197.268 144.509C197.102 146.185 182.471 145.685 160.775 146.528C139.079 147.37 119.911 147.537 117.383 147.537C114.855 147.537 113.855 141.314 114.022 135.258C114.188 129.202 112.17 126.174 117.216 126.174H117.207Z" fill="white" stroke="#A1A3F6" stroke-miterlimit="10"/>
<path d="M152.997 59.5491C152.997 59.5491 153.812 59.1695 155.608 59.188C156.877 59.1972 157.618 59.475 157.618 59.475" stroke="#0F2851" stroke-linecap="round" stroke-linejoin="round"/>
<path d="M155.673 65.1514L155.386 62.7531" stroke="#0F2851" stroke-linecap="round" stroke-linejoin="round"/>
<path d="M141.839 65.4662L142.45 68.1145" stroke="#0F2851" stroke-linecap="round" stroke-linejoin="round"/>
<path d="M141.477 61.7715C141.477 61.7715 140.375 61.9289 139.033 62.966" stroke="#0F2851" stroke-linecap="round" stroke-linejoin="round"/>
<path d="M163.488 61.2252C163.488 61.2252 167.766 58.3546 170.072 58.725C172.378 59.0954 171.665 61.9012 171.054 64.6328C170.683 66.2904 170.452 67.5868 168.026 68.1146C166.34 68.485 164.849 65.6144 164.849 65.6144L163.488 61.2252Z" fill="#F5DEDE"/>
<path d="M166.016 63.9476L170.016 61.9937" stroke="#EEC1C1" stroke-linecap="round" stroke-linejoin="round"/>
<path d="M149.867 76.967C149.867 76.967 151.654 78.4764 153.876 77.1152C155.108 76.3651 155.238 75.0687 155.238 75.0687" stroke="#0F2851" stroke-linecap="round" stroke-linejoin="round"/>
<path d="M152.645 67.0404C152.645 67.0404 153.386 66.2348 155.617 65.7718C157.432 65.3921 159.303 65.7532 159.303 65.7532" stroke="#EEC1C1" stroke-linecap="round" stroke-linejoin="round"/>
<path d="M144.792 68.0775C144.792 68.0775 143.246 67.7905 141.385 68.6794C140.366 69.1609 139.996 69.5962 139.996 69.5962" stroke="#EEC1C1" stroke-linecap="round" stroke-linejoin="round"/>
<path d="M111.114 131.434C110.04 132.378 110.484 135.656 110.929 136.545C111.373 137.434 111.373 138.055 111.559 139.129C111.744 140.203 111.873 142.722 112.253 143.546C112.633 144.37 112.633 147.074 114.457 147.268C115.272 147.352 121.569 145.379 122.337 145.185C123.596 144.87 124.735 142.916 122.402 142.981C120.068 143.046 116.911 143.046 116.911 143.046C116.911 143.046 116.466 142.101 117.161 141.786C117.855 141.472 123.596 141.027 126.31 139.703C127.069 139.333 127.819 138.444 126.81 137.814C126.569 137.666 126.245 137.314 126.245 137.314C126.245 137.314 127.319 136.434 127.754 136.055C128.189 135.675 128.764 134.666 126.81 134.416C124.856 134.166 115.966 134.666 115.966 134.666C115.966 134.666 121.828 132.202 122.902 131.702C123.976 131.202 125.736 129.813 122.458 129.499C119.18 129.184 115.901 129.313 114.068 129.813C112.235 130.313 111.105 131.452 111.105 131.452L111.114 131.434Z" fill="#F5DEDE"/>
<path d="M130.347 140.323C130.097 140.323 137.033 135.277 137.033 135.277" stroke="#585CE5" stroke-linecap="round" stroke-linejoin="round"/>
<path d="M130.856 135.536L136.653 139.194" stroke="#585CE5" stroke-linecap="round" stroke-linejoin="round"/>
<path d="M133.255 133.258L134.264 141.083" stroke="#585CE5" stroke-linecap="round" stroke-linejoin="round"/>
<path d="M143.996 139.212C145.635 137.953 149.589 134.832 149.589 134.712" stroke="#585CE5" stroke-linecap="round" stroke-linejoin="round"/>
<path d="M143.404 134.962L150.173 139.249" stroke="#585CE5" stroke-linecap="round" stroke-linejoin="round"/>
<path d="M146.765 132.943L146.265 141.064" stroke="#585CE5" stroke-linecap="round" stroke-linejoin="round"/>
<path d="M157.321 138.453C159.043 137.147 163.081 133.953 163.081 133.953" stroke="#585CE5" stroke-linecap="round" stroke-linejoin="round"/>
<path d="M156.479 134.962L163.127 138.62" stroke="#585CE5" stroke-linecap="round" stroke-linejoin="round"/>
<path d="M159.636 132.527L159.932 140.092" stroke="#585CE5" stroke-linecap="round" stroke-linejoin="round"/>
<path d="M177.332 142.536C181.372 142.536 184.647 139.261 184.647 135.221C184.647 131.181 181.372 127.906 177.332 127.906C173.292 127.906 170.016 131.181 170.016 135.221C170.016 139.261 173.292 142.536 177.332 142.536Z" stroke="#585CE5" stroke-linecap="round" stroke-linejoin="round"/>
<path d="M173.304 133.703L176.748 138.157L184.777 128.536" stroke="#58C6CD" stroke-width="2" stroke-linecap="round" stroke-linejoin="round"/>
<path d="M199.028 126.137C197.222 124.878 195.324 125.887 192.342 126.008C189.564 126.128 187.295 126.554 187.045 127.434C186.795 128.313 187.425 128.739 188.934 128.86C190.444 128.98 196 129.915 196 129.915C196 129.915 188.305 132.064 187.045 132.184C185.786 132.304 185.406 133.064 185.786 133.823C186.166 134.582 192.935 134.323 192.935 134.323C192.935 134.323 188.11 135.286 187.592 135.832C186.879 136.592 187.508 137.471 189.277 137.601C190.379 137.675 194.203 137.194 196.426 137.305C197.778 137.369 197.481 138.314 197.481 138.314C197.481 138.314 193.064 141.009 193.277 142.222C193.398 142.944 195.129 142.768 196.768 141.972C197.898 141.416 203.324 139.24 203.074 136.712C202.824 134.184 200.676 127.258 199.037 126.119L199.028 126.137Z" fill="#F5DEDE"/>
<path opacity="0.52" d="M161.831 73.4297C163.252 73.4297 164.405 72.2772 164.405 70.8554C164.405 69.4337 163.252 68.2812 161.831 68.2812C160.409 68.2812 159.256 69.4337 159.256 70.8554C159.256 72.2772 160.409 73.4297 161.831 73.4297Z" fill="#EF8B8B"/>
<path opacity="0.52" d="M142.19 72.513C141.755 72.513 141.357 72.6426 141.005 72.8464C141.357 74.0872 141.737 75.2262 142.144 76.1429C142.292 76.4855 142.459 76.8096 142.626 77.1244C143.7 76.9207 144.515 75.9762 144.515 74.8372C144.515 73.5501 143.478 72.513 142.19 72.513Z" fill="#EF8B8B"/>
<path d="M155.895 49.1317C155.895 49.1317 152.061 52.3634 147.191 53.5487C139.431 55.4377 134.514 53.9284 134.514 53.9284" stroke="#EEC1C1" stroke-linecap="round" stroke-linejoin="round"/>
<path d="M140.885 92.8385C140.885 92.8385 142.302 96.7277 148.265 99.2741C155.08 102.172 163.21 100.348 166.683 97.95" stroke="#99D7DB" stroke-linecap="round" stroke-linejoin="round"/>
<path d="M117.041 137.99L126.254 137.295" stroke="#EEC1C1" stroke-linecap="round" stroke-linejoin="round"/>
<path d="M191.333 134.462L196.379 133.573" stroke="#EEC1C1" stroke-linecap="round" stroke-linejoin="round"/>
<path d="M144.663 200.809C144.663 200.809 148.45 202.448 148.83 203.208C149.209 203.967 149.589 204.597 149.589 204.597" stroke="#EEC1C1" stroke-linecap="round" stroke-linejoin="round"/>
<path d="M135.69 205.319L141.7 196.142C140.727 195.54 140.209 195.216 140.209 195.216L132.81 204.087L135.699 205.319H135.69Z" fill="#EEC1C1"/>
<path d="M69.926 73.2353L76.4265 78.1616C77.2969 78.819 78.5563 78.3838 78.8248 77.3282L83.677 58.4843" stroke="#58C6CD" stroke-width="2" stroke-linecap="round" stroke-linejoin="round"/>
<path d="M210.556 96.9777L212.482 104.784C212.705 105.701 213.788 106.089 214.547 105.534L229.604 94.5794" stroke="#EF8B8B" stroke-width="2" stroke-linecap="round" stroke-linejoin="round"/>
<path d="M85.1124 127.971C88.3811 123.757 87.7052 117.766 83.6123 114.59L71.7874 129.869C75.8802 133.045 81.8529 132.193 85.1124 127.98V127.971Z" fill="#EEC1C1"/>
<path d="M79.5748 205.226C83.3066 206.939 87.6865 205.393 89.3533 201.772L75.8338 195.559C74.167 199.179 75.8431 203.513 79.5748 205.226Z" fill="#A1A3F6"/>
<path d="M112.096 87.8937C115.399 87.8937 118.078 85.2156 118.078 81.9118C118.078 78.6081 115.399 75.9299 112.096 75.9299C108.792 75.9299 106.114 78.6081 106.114 81.9118C106.114 85.2156 108.792 87.8937 112.096 87.8937Z" fill="#F2D382"/>
<path d="M204.63 237.117C209.018 237.117 212.575 233.56 212.575 229.172C212.575 224.784 209.018 221.227 204.63 221.227C200.242 221.227 196.685 224.784 196.685 229.172C196.685 233.56 200.242 237.117 204.63 237.117Z" fill="#58C6CD"/>
<path fill-rule="evenodd" clip-rule="evenodd" d="M215.936 177.613C214.538 174.335 210.519 172.9 206.964 174.418L205.482 170.946C211.121 168.538 217.501 170.807 219.714 176.011C221.928 181.215 219.15 187.373 213.51 189.781L212.029 186.308C215.585 184.79 217.344 180.9 215.946 177.622L215.936 177.613Z" fill="#A1A3F6"/>
<path fill-rule="evenodd" clip-rule="evenodd" d="M205.519 62.7901C201.463 66.9108 201.806 73.8279 206.278 78.2356L201.982 82.6063C194.879 75.6243 194.342 64.6606 200.778 58.1231C207.213 51.5856 218.177 51.9375 225.28 58.9194L220.983 63.2901C216.501 58.8824 209.584 58.6602 205.528 62.7808L205.519 62.7901Z" fill="#C9EBED"/>
<path d="M104.817 234.589L109.095 237.015C109.596 237.302 110.225 236.988 110.299 236.414L111.762 225.107" stroke="#F2D382" stroke-width="2" stroke-linecap="round" stroke-linejoin="round"/>
<path d="M168.127 25.8522L170.692 30.047C170.989 30.5378 171.693 30.5655 172.035 30.1025L178.786 20.926" stroke="#A6D0EE" stroke-width="2" stroke-linecap="round" stroke-linejoin="round"/>
</g>
<defs>
<clipPath id="clip0_136_3582">
<rect width="161.53" height="260" fill="white" transform="translate(69 20)"/>
</clipPath>
</defs>
</svg>
