<svg width="300" height="300" viewBox="0 0 300 300" fill="none" xmlns="http://www.w3.org/2000/svg">
<g clip-path="url(#clip0_136_4592)">
<path fill-rule="evenodd" clip-rule="evenodd" d="M150.485 116.765C114.586 116.765 85.4864 145.865 85.4864 181.763H47.4443C47.4443 124.852 93.5824 78.7229 150.485 78.7229C207.387 78.7229 253.525 124.852 253.525 181.763H215.483C215.483 145.865 186.383 116.765 150.485 116.765Z" fill="#A1A3F6"/>
<path d="M123.869 194.413L126.417 220.514L174.037 220.468L178.977 200.853" fill="#EEC1C1"/>
<path d="M171.111 77.5085C171.111 77.5085 173.733 87.4813 173.135 96.3777C172.574 104.685 169.096 109.856 169.096 109.856L164.496 85.5953L171.12 77.5085H171.111Z" fill="#0F2851"/>
<path d="M136.353 136.757C136.353 136.757 120.575 136.766 100.814 149.195C81.0522 161.624 72.0638 174.348 73.2598 177.798C74.4558 181.248 82.9934 182.738 97.2166 182.738C111.44 182.738 130.603 176.602 130.603 176.602L130.456 164.771L136.353 136.757Z" fill="#F5DEDE"/>
<path d="M122.71 85.8161C121.321 90.0573 122.737 97.9509 124.844 103.563C127.199 109.856 134.017 125.385 143.934 127.373C148.424 128.274 151.911 127.483 151.911 127.483L149.887 135.119L141.91 135.791C141.91 135.791 136.068 144.098 137.31 152.746C138.552 161.394 144.606 165.323 155.057 164.872C165.508 164.421 170.669 162.958 175.269 155.101C179.869 147.245 185.261 141.853 185.261 141.853L172.233 136.352C172.233 136.352 170.66 126.471 170.099 121.641C169.538 116.811 169.087 109.847 169.087 109.847C169.087 109.847 169.759 104.005 169.869 99.0641C169.979 94.1237 164.478 85.5861 164.478 85.5861L149.988 82.2189L130.668 75.0337C130.668 75.0337 123.74 82.6329 122.691 85.8161H122.71Z" fill="#F5DEDE"/>
<path d="M118.643 87.6745C118.643 87.6745 115.985 90.6737 129.545 92.4401C143.355 94.2341 156.336 89.9469 162.38 87.4261C169.115 84.6201 171.111 77.5176 171.111 77.5176C171.111 77.5176 169.427 67.4068 156.06 63.2576C142.692 59.1084 130.548 66.6248 126.785 71.142C119.416 79.9832 118.643 87.6837 118.643 87.6837V87.6745Z" fill="#0F2851"/>
<path d="M164.938 112.211C164.938 112.211 164.036 117.041 161.681 120.298C157.348 126.287 151.911 127.483 151.911 127.483L151.064 131.154C151.064 131.154 155.407 131.154 159.169 127.566C162.932 123.978 164.432 119.047 164.855 116.875C165.278 114.704 164.947 112.211 164.947 112.211H164.938Z" fill="#EEC1C1"/>
<path d="M140.705 96.3225C140.705 96.3225 142.646 95.2277 145.231 94.8137C147.366 94.4733 148.001 94.5285 148.001 94.5285" stroke="#0F2851" stroke-linecap="round" stroke-linejoin="round"/>
<path d="M161.736 62.356C167.91 62.356 172.914 57.3515 172.914 51.178C172.914 45.0046 167.91 40 161.736 40C155.563 40 150.558 45.0046 150.558 51.178C150.558 57.3515 155.563 62.356 161.736 62.356Z" fill="#0F2851"/>
<path d="M176.548 69.7988C179.897 69.7988 182.611 67.0844 182.611 63.736C182.611 60.3876 179.897 57.6732 176.548 57.6732C173.2 57.6732 170.485 60.3876 170.485 63.736C170.485 67.0844 173.2 69.7988 176.548 69.7988Z" fill="#0F2851"/>
<path d="M134.44 104.465C134.44 104.465 137.43 115.127 137.651 116.369C137.871 117.611 140.227 117.161 141.662 116.204C142.416 115.707 143.483 114.345 143.483 114.345" stroke="#0F2851" stroke-linecap="round" stroke-linejoin="round"/>
<path d="M144.781 121.724C144.781 121.724 148.313 121.963 150.402 119.884C151.993 118.292 152.076 116.664 152.076 116.664" stroke="#0F2851" stroke-linecap="round" stroke-linejoin="round"/>
<path d="M146.758 106.765L144.716 102.836" stroke="#0F2851" stroke-linecap="round" stroke-linejoin="round"/>
<path d="M131.431 112.689L129.297 109.101" stroke="#0F2851" stroke-linecap="round" stroke-linejoin="round"/>
<path d="M126.5 103.333C126.5 103.333 124.89 104.041 123.851 105.173" stroke="#0F2851" stroke-linecap="round" stroke-linejoin="round"/>
<path d="M160.577 90.4069C160.577 90.4069 163.273 87.8217 165.747 87.0397C168.222 86.2577 170.347 87.0397 170.918 90.5173C171.387 93.4061 171.369 97.5921 169.795 99.5057C168.443 101.153 164.183 100.407 164.183 100.407" fill="#F5DEDE"/>
<path d="M160.577 90.4069C160.577 90.4069 163.273 87.8217 165.747 87.0397C168.222 86.2577 170.347 87.0397 170.918 90.5173C171.387 93.4061 171.369 97.5921 169.795 99.5057C168.443 101.153 164.183 100.407 164.183 100.407" stroke="#EEC1C1" stroke-linecap="round" stroke-linejoin="round"/>
<path d="M163.604 96.6905L167.311 91.8697" stroke="#EEC1C1" stroke-linecap="round" stroke-linejoin="round"/>
<path d="M149.887 135.119L147.752 142.083" stroke="#EEC1C1" stroke-linecap="round" stroke-linejoin="round"/>
<path d="M136.317 135.423L142.453 134.733C142.453 134.733 139.389 143.316 139.592 150.244C139.859 159.563 150.089 162.71 159.951 161.624C171.773 160.318 178.066 146.352 179.566 143.804C181.065 141.255 181.673 139.305 181.673 139.305L188.002 142.185C188.002 142.185 182.114 155.929 180.615 161.919C179.115 167.908 179.713 175.691 181.213 178.985C182.712 182.278 186.153 183.631 186.153 183.631L178.968 200.853L123.869 194.413C123.869 194.413 119.83 184.532 122.526 171.956C125.221 159.379 136.317 135.423 136.317 135.423Z" fill="#EF8B8B"/>
<path d="M46.46 220.468H253.994" stroke="#0F2851" stroke-linecap="round" stroke-linejoin="round"/>
<path d="M93.6284 166.859L120.281 165.967" stroke="#EEC1C1" stroke-linecap="round" stroke-linejoin="round"/>
<path d="M187.505 143.436C187.505 143.436 193.504 145.938 197.092 150.538C201.793 156.555 204.167 163.345 205.777 178.69C207.387 194.036 207.332 205.932 196.347 212.077C174.791 224.138 148.727 223.605 148.727 223.605C148.727 223.605 142.591 227.349 139.592 228.545C136.593 229.741 126.261 233.633 125.065 233.633C123.869 233.633 122.857 232.069 122.857 232.069C122.857 232.069 114.963 234.323 113.381 233.329C112.571 232.814 112.581 231.903 112.581 231.903C112.581 231.903 110.198 232.86 109.278 231.314C108.864 230.624 110.575 229.272 110.575 229.272L111.118 228.683C111.118 228.683 110.032 229.06 110.032 228.012C110.032 226.963 111.44 225.537 114.586 223.89C117.733 222.243 124.614 217.45 130.603 216.254C136.593 215.058 142.278 213.862 144.679 214.304C147.081 214.745 156.658 212.96 158.452 212.206C160.246 211.452 181.369 205.518 185.251 200.228C191.149 192.205 188.251 180.015 188.251 180.015L186.153 183.612C186.153 183.612 181.167 182.14 179.98 174.808C178.149 163.547 181.921 156.951 184.865 149.489C185.997 146.619 187.496 143.408 187.496 143.408L187.505 143.436Z" fill="#F5DEDE"/>
<path d="M186.153 169.343C187.487 175.194 188.26 180.043 188.26 180.043" stroke="#EEC1C1" stroke-linecap="round" stroke-linejoin="round"/>
<path d="M123.841 165.442C123.841 165.442 132.618 165.286 135.81 165.12C139.003 164.955 142.775 167.724 144.054 169.637C145.332 171.551 153.787 180.015 156.023 181.772C158.258 183.529 162.307 186.17 161.828 186.97C161.35 187.771 160.715 188.304 158.801 187.826C156.888 187.347 154.063 184.799 154.063 184.799C154.063 184.799 154.9 185.388 156.317 188.893C157.734 192.398 158.82 195.913 158.82 195.913C158.82 195.913 158.764 196.704 157.55 196.704C156.483 196.704 156.014 196.235 156.014 196.235C156.014 196.235 153.999 196.63 153.355 196.327C151.478 195.453 149.85 191.819 149.85 191.819L147.09 188.323L149.85 195.453C149.85 195.453 148.378 197.652 146.464 195.582C144.55 193.512 142.701 188.626 140.953 188.148C139.205 187.669 138.616 186.473 136.694 183.051C134.909 179.877 135.019 177.375 131.348 177.54C127.678 177.706 122.351 178.911 122.351 178.911L123.841 165.451V165.442Z" fill="#F5DEDE"/>
<path d="M88.9456 123.886L103.104 109.147L91.8712 103.305C91.8712 103.305 98.6056 128.458 98.6056 130.105L105.644 118.725L86.802 113.6" stroke="white" stroke-width="2" stroke-linecap="round" stroke-linejoin="round"/>
<path d="M116.086 237.037L134.145 241.066C135.314 241.324 135.479 242.925 134.385 243.422L98.4768 259.549C97.198 260.12 95.7352 260.156 94.438 259.632L76.9488 252.594C75.4952 252.014 75.5688 249.935 77.0592 249.448L115.212 237.083C115.497 236.991 115.8 236.972 116.095 237.046L116.086 237.037Z" fill="#58C6CD"/>
<path d="M79.8469 250.717L94.6774 257.157" stroke="#99D7DB" stroke-linecap="round" stroke-linejoin="round"/>
<path d="M124.317 241.848C124.438 241.199 123.055 240.395 121.227 240.052C119.4 239.71 117.819 239.958 117.697 240.607C117.576 241.256 118.959 242.061 120.787 242.403C122.614 242.746 124.195 242.498 124.317 241.848Z" fill="#99D7DB"/>
<path d="M122.986 231.581C122.986 231.581 126.417 229.474 127.705 228.738C128.763 228.14 132.342 226.816 132.342 226.816" stroke="#EEC1C1" stroke-linecap="round" stroke-linejoin="round"/>
<path d="M112.709 231.83C112.709 231.83 117.907 227.984 121.357 226.65C123.952 225.647 124.826 225.316 124.826 225.316" stroke="#EEC1C1" stroke-linecap="round" stroke-linejoin="round"/>
<path d="M110.75 228.784C110.75 228.784 115.129 225.012 118.349 223.687C119.977 223.016 121.394 222.436 121.394 222.436" stroke="#EEC1C1" stroke-linecap="round" stroke-linejoin="round"/>
<path d="M115.488 167.613C115.488 167.613 113.445 171.698 113.988 177.641C114.384 181.965 115.635 182.536 115.635 182.536L124.467 180.53C124.467 180.53 122.884 179.067 123.648 173.133C124.209 168.8 125.359 167.006 125.359 167.006L115.478 167.604L115.488 167.613Z" fill="#0F2851"/>
<path d="M120.451 170.307C125.07 170.006 128.677 167.649 128.507 165.043C128.337 162.437 124.455 160.568 119.836 160.869C115.217 161.171 111.61 163.527 111.78 166.133C111.95 168.74 115.832 170.608 120.451 170.307Z" fill="#585CE5"/>
<path opacity="0.52" d="M155.802 111.797C158.018 111.797 159.813 110.001 159.813 107.786C159.813 105.57 158.018 103.775 155.802 103.775C153.587 103.775 151.791 105.57 151.791 107.786C151.791 110.001 153.587 111.797 155.802 111.797Z" fill="#EF8B8B"/>
<path opacity="0.52" d="M132.526 114.713C131.763 114.713 131.054 114.943 130.447 115.311C131.818 117.584 133.382 119.819 135.139 121.742C135.985 121.006 136.537 119.93 136.537 118.725C136.537 116.507 134.743 114.713 132.526 114.713Z" fill="#EF8B8B"/>
<path d="M180.826 78.6769C182.63 78.6769 184.092 77.2146 184.092 75.4108C184.092 73.6071 182.63 72.1448 180.826 72.1448C179.023 72.1448 177.56 73.6071 177.56 75.4108C177.56 77.2146 179.023 78.6769 180.826 78.6769Z" fill="#0F2851"/>
<path d="M123.786 85.0433C123.786 85.0433 137.2 90.0573 152.481 85.2917C167.762 80.5261 171.902 73.3868 171.902 73.3868" stroke="#585CE5" stroke-linecap="round" stroke-linejoin="round"/>
<path d="M149.307 183.125C149.307 183.125 151.726 186.464 152.895 188.635C154.063 190.807 156.014 196.225 156.014 196.225" stroke="#EEC1C1" stroke-linecap="round" stroke-linejoin="round"/>
<path d="M151.23 181.119L154.487 185.213" stroke="#EEC1C1" stroke-linecap="round" stroke-linejoin="round"/>
<path d="M115.138 165.332L120.621 164.872" stroke="white" stroke-width="2" stroke-linecap="round" stroke-linejoin="round"/>
<path d="M124.789 165.709C125.46 165.709 126.003 165.165 126.003 164.495C126.003 163.824 125.46 163.28 124.789 163.28C124.118 163.28 123.574 163.824 123.574 164.495C123.574 165.165 124.118 165.709 124.789 165.709Z" fill="white"/>
<path d="M164.597 164.495L175.288 165.332" stroke="#EEC1C1" stroke-linecap="round" stroke-linejoin="round"/>
<path d="M202.262 200.77L198.067 206.548" stroke="#EEC1C1" stroke-linecap="round" stroke-linejoin="round"/>
<path d="M125.865 150.391C125.819 156.389 125.451 161.293 125.451 161.293" stroke="#EEC1C1" stroke-linecap="round" stroke-linejoin="round"/>
</g>
<defs>
<clipPath id="clip0_136_4592">
<rect width="208.454" height="220" fill="white" transform="translate(46 40)"/>
</clipPath>
</defs>
</svg>
